<svg xmlns="http://www.w3.org/2000/svg" width="1012" height="300" viewBox="0 0 1012 300">
  <style>
    .b {fill: #0d1117}
    .l {fill: #fff}
    @media (prefers-color-scheme: light) {
      .b {fill: #fff}
      .l {fill: #0d1117}
    }
  </style>
  <rect class="b" x="0" y="0" width="1012" height="300" />
  <path fill="#0366d6" d="M422.45 141.77L418.34 141.77L430.12 173.32L434.22 173.32L446 141.77L441.87 141.77L432.35 169.13L432.00 169.13L422.45 141.77Z"/>
  <path class="l" d="M464.90 145.02L464.90 173.32L468.73 173.32L468.73 145.02L483.12 145.02L483.12 141.77L468.73 141.77L468.73 138.25Q468.73 132.86 476.32 132.86L476.32 132.86Q477.93 132.86 479.90 132.96Q481.86 133.07 483.12 133.21L483.12 133.21L483.12 129.99Q482.18 129.84 480.09 129.71Q477.99 129.58 476.32 129.58L476.32 129.58Q472.57 129.58 470.02 130.55Q467.47 131.51 466.19 133.42Q464.90 135.32 464.90 138.13L464.90 138.13L464.90 141.77L456.40 141.77L456.40 145.02L464.90 145.02ZM506.94 133.42L506.94 133.42Q508.43 133.42 509.50 132.35Q510.57 131.28 510.57 129.79L510.57 129.79Q510.57 128.29 509.50 127.22Q508.43 126.15 506.94 126.15L506.94 126.15Q505.44 126.15 504.37 127.22Q503.30 128.29 503.30 129.79L503.30 129.79Q503.30 131.28 504.37 132.35Q505.44 133.42 506.94 133.42ZM494.34 173.32L520.09 173.32L520.09 170.21L509.28 170.21L509.28 141.77L494.28 141.77L494.28 144.87L505.44 144.87L505.44 170.21L494.34 170.21L494.34 173.32ZM531.43 173.32L557.18 173.32L557.18 170.21L546.37 170.21L546.37 129.20L531.37 129.20L531.37 132.30L542.53 132.30L542.53 170.21L531.43 170.21L531.43 173.32ZM580.85 144.64L580.85 144.64Q585.04 144.64 587.40 147.50Q589.76 150.35 589.76 155.39L589.76 155.39L571.71 155.39Q571.71 150.32 574.14 147.48Q576.58 144.64 580.85 144.64ZM593.51 165.53L589.70 165.53Q588.97 167.84 586.74 169.13Q584.52 170.42 581.29 170.42L581.29 170.42Q576.90 170.42 574.31 167.50Q571.71 164.59 571.71 159.64L571.71 159.64L571.71 158.55L593.66 158.55L593.66 156.06Q593.66 151.35 592.15 148.04Q590.64 144.73 587.78 142.98Q584.93 141.24 580.85 141.24L580.85 141.24Q576.96 141.24 574.03 142.95Q571.10 144.67 569.49 147.76Q567.88 150.85 567.88 155.01L567.88 155.01L567.88 159.61Q567.88 166.35 571.41 170.10Q574.94 173.85 581.29 173.85L581.29 173.85Q584.49 173.85 587.05 172.82Q589.61 171.80 591.30 169.92Q592.98 168.05 593.51 165.53L593.51 165.53Z"/>
</svg>
