<svg xmlns="http://www.w3.org/2000/svg" width="400" height="400" viewBox="0 0 410 210">
  <path fill="#0367d8" d="M15.98 126L23.93 126L40.13 80.84L32.66 80.84L20.02 117.11L19.77 117.11L7.99 80.84L0.17 80.84Z"/>
  <path d="M49.71 126L57.11 126L57.11 87.03L65.96 87.03L65.96 80.84L57.06 80.84L57.06 76.93C57.06 71.43 59.43 69.84 64.32 69.84C65.44 69.84 66 69.93 66.64 70.01L66.64 63.95C65.87 63.82 64.84 63.70 63.34 63.70C54.05 63.70 49.71 67.69 49.71 76.33L49.71 80.84L43.61 80.84L43.61 87.03L49.71 87.03ZM76.44 126L83.83 126L83.83 80.84L76.44 80.84ZM75.41 69.97C75.41 72.59 77.52 74.65 80.14 74.65C82.76 74.65 84.91 72.59 84.91 69.97C84.91 67.30 82.76 65.24 80.14 65.24C77.52 65.24 75.41 67.30 75.41 69.97ZM97.75 126L105.10 126L105.10 64.25L97.75 64.25ZM135.70 126.73C145.66 126.73 151.64 121.19 153.36 113.71L146.01 113.71C144.55 117.92 141.11 120.54 135.87 120.54C128.52 120.54 124.14 114.66 124.14 106.06L124.14 105.25L153.96 105.25L153.96 101.04C153.96 88.62 147.17 80.11 135.35 80.11C123.49 80.11 116.75 88.62 116.75 100.52L116.75 105.59C116.75 118.44 123.92 126.73 135.70 126.73ZM124.14 99.27L124.14 99.14C124.14 92.01 128.52 86.30 135.39 86.30C142.14 86.30 146.57 91.97 146.57 99.14L146.57 99.27Z"/>
</svg>
