<svg xmlns="http://www.w3.org/2000/svg" width="132" height="207">
  <path fill="#000" d="M38.07 75.77L35.79 75.77L19.12 119.94L19.04 119.94L2.36 75.77L0.09 75.77L17.62 122L20.54 122ZM45.46"/>
  <path fill="#007ec6" d="M45.46 122L47.61 122L47.61 77.70L57.79 77.70L57.79 75.77L47.61 75.77L47.61 68.80C47.61 62.49 50.49 60.17 55.09 60.17C56.25 60.17 57.32 60.30 58.22 60.60L58.22 58.62C57.54 58.36 56.33 58.19 55.04 58.19C49.20 58.19 45.46 61.24 45.46 68.50L45.46 75.77L39.02 75.77L39.02 77.70L45.46 77.70ZM65.61 122L67.72 122L67.72 75.77L65.61 75.77ZM66.69 63.30C67.80 63.30 68.75 62.36 68.75 61.24C68.75 60.08 67.80 59.18 66.69 59.18C65.53 59.18 64.58 60.08 64.58 61.24C64.58 62.36 65.53 63.30 66.69 63.30ZM78.89 122L81.00 122L81.00 57.29L78.89 57.29ZM109.48 77.05C119.97 77.05 127.02 85.18 127.02 97.04L91.57 97.04C92.08 85.05 99.17 77.05 109.48 77.05ZM126.37 109.15C125.00 115.68 119.11 120.71 109.87 120.71C98.83 120.71 91.52 112.80 91.52 99.05L91.52 98.97L129.16 98.97L129.16 97.34C129.16 84.06 121.26 75.08 109.48 75.08C97.37 75.08 89.38 84.53 89.38 98.88C89.38 113.92 97.41 122.69 109.83 122.69C120.18 122.69 127.02 116.93 128.56 109.15Z"/>
</svg>
